<?xml version="1.0" encoding="UTF-8" standalone="no"?>
<!-- Created with Inkscape (http://www.inkscape.org/) -->

<svg
   width="1920"
   height="1080"
   viewBox="0 0 507.99999 285.75001"
   version="1.1"
   id="svg5"
   inkscape:version="1.1.2 (b8e25be833, 2022-02-05)"
   sodipodi:docname="bannnerandina.svg"
   xmlns:inkscape="http://www.inkscape.org/namespaces/inkscape"
   xmlns:sodipodi="http://sodipodi.sourceforge.net/DTD/sodipodi-0.dtd"
   xmlns="http://www.w3.org/2000/svg"
   xmlns:svg="http://www.w3.org/2000/svg">
  <sodipodi:namedview
     id="namedview7"
     pagecolor="#ffffff"
     bordercolor="#666666"
     borderopacity="1.0"
     inkscape:pageshadow="2"
     inkscape:pageopacity="0.0"
     inkscape:pagecheckerboard="0"
     inkscape:document-units="mm"
     showgrid="false"
     units="px"
     inkscape:zoom="0.61580177"
     inkscape:cx="928.05838"
     inkscape:cy="561.05717"
     inkscape:window-width="1920"
     inkscape:window-height="991"
     inkscape:window-x="-9"
     inkscape:window-y="-9"
     inkscape:window-maximized="1"
     inkscape:current-layer="layer1"
     showguides="false"
     inkscape:snap-text-baseline="true" />
  <defs
     id="defs2">
    <inkscape:path-effect
       effect="powerstroke"
       id="path-effect2406"
       is_visible="true"
       lpeversion="1"
       offset_points="0.017164285,-1.8159689 | 0.68139375,-2.7300623 | 1,-1.7779829"
       not_jump="false"
       sort_points="true"
       interpolator_type="CentripetalCatmullRom"
       interpolator_beta="0.2"
       start_linecap_type="zerowidth"
       linejoin_type="round"
       miter_limit="4"
       scale_width="1"
       end_linecap_type="zerowidth" />
    <inkscape:path-effect
       effect="powerstroke"
       id="path-effect1270"
       is_visible="true"
       lpeversion="1"
       offset_points="0.009687681,0.86309391 | 0.74672645,5.947761 | 1,18.930138"
       not_jump="false"
       sort_points="true"
       interpolator_type="CentripetalCatmullRom"
       interpolator_beta="0.2"
       start_linecap_type="zerowidth"
       linejoin_type="round"
       miter_limit="4"
       scale_width="1"
       end_linecap_type="zerowidth" />
    <inkscape:path-effect
       effect="taper_stroke"
       id="path-effect1230"
       is_visible="true"
       lpeversion="1"
       stroke_width="0.070004247"
       attach_start="0.15996899"
       end_offset="0.2"
       start_smoothing="0.5"
       end_smoothing="0.5"
       jointype="extrapolated"
       start_shape="center"
       end_shape="center"
       miter_limit="100" />
    <inkscape:path-effect
       effect="taper_stroke"
       id="path-effect1133"
       is_visible="true"
       lpeversion="1"
       stroke_width="0.26458299"
       attach_start="0.27905356"
       end_offset="0.2"
       start_smoothing="0.5"
       end_smoothing="0.5"
       jointype="extrapolated"
       start_shape="center"
       end_shape="center"
       miter_limit="100" />
    <inkscape:path-effect
       effect="taper_stroke"
       id="path-effect990"
       is_visible="true"
       lpeversion="1"
       stroke_width="0.26458299"
       attach_start="0.2"
       end_offset="0.2"
       start_smoothing="0.5"
       end_smoothing="0.5"
       jointype="extrapolated"
       start_shape="center"
       end_shape="center"
       miter_limit="100" />
    <inkscape:path-effect
       effect="fill_between_many"
       method="bsplinespiro"
       linkedpaths="#rect31,0,1"
       id="path-effect992"
       join="true"
       close="true"
       autoreverse="true" />
    <inkscape:path-effect
       effect="powerstroke"
       id="path-effect2406-4"
       is_visible="true"
       lpeversion="1"
       offset_points="0.017164285,-1.8929162 | 0.68139375,-2.8457422 | 1,-1.8533207"
       not_jump="false"
       sort_points="true"
       interpolator_type="CentripetalCatmullRom"
       interpolator_beta="0.2"
       start_linecap_type="zerowidth"
       linejoin_type="round"
       miter_limit="4"
       scale_width="1"
       end_linecap_type="zerowidth" />
    <inkscape:path-effect
       effect="powerstroke"
       id="path-effect2406-9"
       is_visible="true"
       lpeversion="1"
       offset_points="0.017164285,-1.9138588 | 0.68139375,-2.8772265 | 1,-1.8738252"
       not_jump="false"
       sort_points="true"
       interpolator_type="CentripetalCatmullRom"
       interpolator_beta="0.2"
       start_linecap_type="zerowidth"
       linejoin_type="round"
       miter_limit="4"
       scale_width="1"
       end_linecap_type="zerowidth" />
    <inkscape:path-effect
       effect="powerstroke"
       id="path-effect2406-2"
       is_visible="true"
       lpeversion="1"
       offset_points="0.35117447,-1.7558894 | 0.67422965,-2.2184918 | 1,-1.5776643"
       not_jump="false"
       sort_points="true"
       interpolator_type="CentripetalCatmullRom"
       interpolator_beta="0.2"
       start_linecap_type="zerowidth"
       linejoin_type="round"
       miter_limit="4"
       scale_width="1"
       end_linecap_type="zerowidth" />
    <inkscape:path-effect
       effect="powerstroke"
       id="path-effect2406-1"
       is_visible="true"
       lpeversion="1"
       offset_points="0,-2.3821058 | 0.75409515,-2.8094093 | 0.99148345,-2.6086277"
       not_jump="false"
       sort_points="true"
       interpolator_type="CentripetalCatmullRom"
       interpolator_beta="0.2"
       start_linecap_type="zerowidth"
       linejoin_type="round"
       miter_limit="4"
       scale_width="1"
       end_linecap_type="zerowidth" />
    <inkscape:path-effect
       effect="powerstroke"
       id="path-effect2406-7"
       is_visible="true"
       lpeversion="1"
       offset_points="0.017164285,-1.5810349 | 0.68139375,-2.3768711 | 1,-1.5479633"
       not_jump="false"
       sort_points="true"
       interpolator_type="CentripetalCatmullRom"
       interpolator_beta="0.2"
       start_linecap_type="zerowidth"
       linejoin_type="round"
       miter_limit="4"
       scale_width="1"
       end_linecap_type="zerowidth" />
    <inkscape:path-effect
       effect="powerstroke"
       id="path-effect2406-5"
       is_visible="true"
       lpeversion="1"
       offset_points="0.032094453,-1.4074055 | 1.315112,-2.1158427 | 2,-1.3779658"
       not_jump="false"
       sort_points="true"
       interpolator_type="CentripetalCatmullRom"
       interpolator_beta="0.2"
       start_linecap_type="zerowidth"
       linejoin_type="round"
       miter_limit="4"
       scale_width="1"
       end_linecap_type="zerowidth" />
    <inkscape:path-effect
       effect="powerstroke"
       id="path-effect2406-71"
       is_visible="true"
       lpeversion="1"
       offset_points="0.017164285,-2.306446 | 0.68139375,-3.467428 | 1,-2.2582004"
       not_jump="false"
       sort_points="true"
       interpolator_type="CentripetalCatmullRom"
       interpolator_beta="0.2"
       start_linecap_type="zerowidth"
       linejoin_type="round"
       miter_limit="4"
       scale_width="1"
       end_linecap_type="zerowidth" />
    <inkscape:path-effect
       effect="powerstroke"
       id="path-effect2406-17"
       is_visible="true"
       lpeversion="1"
       offset_points="0.017164285,-1.5234082 | 0.68139375,-2.290237 | 1,-1.4915419"
       not_jump="false"
       sort_points="true"
       interpolator_type="CentripetalCatmullRom"
       interpolator_beta="0.2"
       start_linecap_type="zerowidth"
       linejoin_type="round"
       miter_limit="4"
       scale_width="1"
       end_linecap_type="zerowidth" />
    <inkscape:path-effect
       effect="powerstroke"
       id="path-effect2406-6"
       is_visible="true"
       lpeversion="1"
       offset_points="0.0233631,-2.1403827 | 0.92747646,-3.2177744 | 2,-2.0956107"
       not_jump="false"
       sort_points="true"
       interpolator_type="CentripetalCatmullRom"
       interpolator_beta="0.2"
       start_linecap_type="zerowidth"
       linejoin_type="round"
       miter_limit="4"
       scale_width="1"
       end_linecap_type="zerowidth" />
    <inkscape:path-effect
       effect="powerstroke"
       id="path-effect2406-0"
       is_visible="true"
       lpeversion="1"
       offset_points="0.017164285,-2.1000616 | 0.68139375,-3.157157 | 1,-2.056133"
       not_jump="false"
       sort_points="true"
       interpolator_type="CentripetalCatmullRom"
       interpolator_beta="0.2"
       start_linecap_type="zerowidth"
       linejoin_type="round"
       miter_limit="4"
       scale_width="1"
       end_linecap_type="zerowidth" />
    <inkscape:path-effect
       effect="powerstroke"
       id="path-effect2406-02"
       is_visible="true"
       lpeversion="1"
       offset_points="0.017164285,-1.7983093 | 0.68139375,-2.7035135 | 1,-1.7606927"
       not_jump="false"
       sort_points="true"
       interpolator_type="CentripetalCatmullRom"
       interpolator_beta="0.2"
       start_linecap_type="zerowidth"
       linejoin_type="round"
       miter_limit="4"
       scale_width="1"
       end_linecap_type="zerowidth" />
    <inkscape:path-effect
       effect="powerstroke"
       id="path-effect2406-60"
       is_visible="true"
       lpeversion="1"
       offset_points="0.017164285,-2.1662561 | 0.68139375,-3.2566716 | 1,-2.120943"
       not_jump="false"
       sort_points="true"
       interpolator_type="CentripetalCatmullRom"
       interpolator_beta="0.2"
       start_linecap_type="zerowidth"
       linejoin_type="round"
       miter_limit="4"
       scale_width="1"
       end_linecap_type="zerowidth" />
    <inkscape:path-effect
       effect="powerstroke"
       id="path-effect2406-8"
       is_visible="true"
       lpeversion="1"
       offset_points="0.017164285,-1.4882537 | 0.68139375,-2.237387 | 1,-1.4571228"
       not_jump="false"
       sort_points="true"
       interpolator_type="CentripetalCatmullRom"
       interpolator_beta="0.2"
       start_linecap_type="zerowidth"
       linejoin_type="round"
       miter_limit="4"
       scale_width="1"
       end_linecap_type="zerowidth" />
    <inkscape:path-effect
       effect="powerstroke"
       id="path-effect2406-72"
       is_visible="true"
       lpeversion="1"
       offset_points="0.017164285,-1.1950586 | 0.68139375,-1.7966083 | 1,-1.1700607"
       not_jump="false"
       sort_points="true"
       interpolator_type="CentripetalCatmullRom"
       interpolator_beta="0.2"
       start_linecap_type="zerowidth"
       linejoin_type="round"
       miter_limit="4"
       scale_width="1"
       end_linecap_type="zerowidth" />
    <inkscape:path-effect
       effect="powerstroke"
       id="path-effect2406-76"
       is_visible="true"
       lpeversion="1"
       offset_points="0.017164285,-2.306446 | 0.68139375,-3.467428 | 1,-2.2582004"
       not_jump="false"
       sort_points="true"
       interpolator_type="CentripetalCatmullRom"
       interpolator_beta="0.2"
       start_linecap_type="zerowidth"
       linejoin_type="round"
       miter_limit="4"
       scale_width="1"
       end_linecap_type="zerowidth" />
    <inkscape:path-effect
       effect="powerstroke"
       id="path-effect2406-761"
       is_visible="true"
       lpeversion="1"
       offset_points="0.017164285,-1.6244521 | 0.68139375,-2.4421432 | 1,-1.5904724"
       not_jump="false"
       sort_points="true"
       interpolator_type="CentripetalCatmullRom"
       interpolator_beta="0.2"
       start_linecap_type="zerowidth"
       linejoin_type="round"
       miter_limit="4"
       scale_width="1"
       end_linecap_type="zerowidth" />
    <inkscape:path-effect
       effect="powerstroke"
       id="path-effect2406-5-9"
       is_visible="true"
       lpeversion="1"
       offset_points="0.032094453,-1.7108107 | 1.315112,-2.5719713 | 2,-1.6750244"
       not_jump="false"
       sort_points="true"
       interpolator_type="CentripetalCatmullRom"
       interpolator_beta="0.2"
       start_linecap_type="zerowidth"
       linejoin_type="round"
       miter_limit="4"
       scale_width="1"
       end_linecap_type="zerowidth" />
    <inkscape:path-effect
       effect="powerstroke"
       id="path-effect2406-5-9-3"
       is_visible="true"
       lpeversion="1"
       offset_points="0.032094453,-1.8800865 | 1.315112,-2.8264545 | 2,-1.8407594"
       not_jump="false"
       sort_points="true"
       interpolator_type="CentripetalCatmullRom"
       interpolator_beta="0.2"
       start_linecap_type="zerowidth"
       linejoin_type="round"
       miter_limit="4"
       scale_width="1"
       end_linecap_type="zerowidth" />
    <inkscape:path-effect
       effect="powerstroke"
       id="path-effect2406-761-2"
       is_visible="true"
       lpeversion="1"
       offset_points="0.052114522,-1.8900819 | 1.5249242,-2.8414816 | 2,-1.8505458"
       not_jump="false"
       sort_points="true"
       interpolator_type="CentripetalCatmullRom"
       interpolator_beta="0.2"
       start_linecap_type="zerowidth"
       linejoin_type="round"
       miter_limit="4"
       scale_width="1"
       end_linecap_type="zerowidth" />
    <inkscape:path-effect
       effect="powerstroke"
       id="path-effect2406-02-5"
       is_visible="true"
       lpeversion="1"
       offset_points="0.017164285,-1.2420702 | 0.68139375,-1.8672837 | 1,-1.2160889"
       not_jump="false"
       sort_points="true"
       interpolator_type="CentripetalCatmullRom"
       interpolator_beta="0.2"
       start_linecap_type="zerowidth"
       linejoin_type="round"
       miter_limit="4"
       scale_width="1"
       end_linecap_type="zerowidth" />
    <inkscape:path-effect
       effect="powerstroke"
       id="path-effect2406-02-5-8"
       is_visible="true"
       lpeversion="1"
       offset_points="0.020927305,-1.2420702 | 0.83077942,-1.8672837 | 2,-1.2160889"
       not_jump="false"
       sort_points="true"
       interpolator_type="CentripetalCatmullRom"
       interpolator_beta="0.2"
       start_linecap_type="zerowidth"
       linejoin_type="round"
       miter_limit="4"
       scale_width="1"
       end_linecap_type="zerowidth" />
    <inkscape:path-effect
       effect="powerstroke"
       id="path-effect2406-761-2-5"
       is_visible="true"
       lpeversion="1"
       offset_points="0.017164285,-1.5173066 | 0.68139375,-2.2810645 | 1,-1.485568"
       not_jump="false"
       sort_points="true"
       interpolator_type="CentripetalCatmullRom"
       interpolator_beta="0.2"
       start_linecap_type="zerowidth"
       linejoin_type="round"
       miter_limit="4"
       scale_width="1"
       end_linecap_type="zerowidth" />
    <inkscape:path-effect
       effect="powerstroke"
       id="path-effect2406-9-6"
       is_visible="true"
       lpeversion="1"
       offset_points="0.017164285,-1.9138588 | 0.68139375,-2.8772265 | 1,-1.8738252"
       not_jump="false"
       sort_points="true"
       interpolator_type="CentripetalCatmullRom"
       interpolator_beta="0.2"
       start_linecap_type="zerowidth"
       linejoin_type="round"
       miter_limit="4"
       scale_width="1"
       end_linecap_type="zerowidth" />
    <inkscape:path-effect
       effect="powerstroke"
       id="path-effect2406-761-2-5-1"
       is_visible="true"
       lpeversion="1"
       offset_points="0.017164285,-1.5173066 | 0.68139375,-2.2810645 | 1,-1.485568"
       not_jump="false"
       sort_points="true"
       interpolator_type="CentripetalCatmullRom"
       interpolator_beta="0.2"
       start_linecap_type="zerowidth"
       linejoin_type="round"
       miter_limit="4"
       scale_width="1"
       end_linecap_type="zerowidth" />
    <inkscape:path-effect
       effect="powerstroke"
       id="path-effect2406-9-6-9"
       is_visible="true"
       lpeversion="1"
       offset_points="0.017164285,-1.9138588 | 0.68139375,-2.8772265 | 1,-1.8738252"
       not_jump="false"
       sort_points="true"
       interpolator_type="CentripetalCatmullRom"
       interpolator_beta="0.2"
       start_linecap_type="zerowidth"
       linejoin_type="round"
       miter_limit="4"
       scale_width="1"
       end_linecap_type="zerowidth" />
    <inkscape:path-effect
       effect="powerstroke"
       id="path-effect2406-761-2-5-1-5"
       is_visible="true"
       lpeversion="1"
       offset_points="0.017164285,-1.4232707 | 0.68139375,-2.1396945 | 1,-1.3934991"
       not_jump="false"
       sort_points="true"
       interpolator_type="CentripetalCatmullRom"
       interpolator_beta="0.2"
       start_linecap_type="zerowidth"
       linejoin_type="round"
       miter_limit="4"
       scale_width="1"
       end_linecap_type="zerowidth" />
    <inkscape:path-effect
       effect="powerstroke"
       id="path-effect2406-6-5"
       is_visible="true"
       lpeversion="1"
       offset_points="0.017164285,-2.1403827 | 0.68139375,-3.2177744 | 1,-2.0956107"
       not_jump="false"
       sort_points="true"
       interpolator_type="CentripetalCatmullRom"
       interpolator_beta="0.2"
       start_linecap_type="zerowidth"
       linejoin_type="round"
       miter_limit="4"
       scale_width="1"
       end_linecap_type="zerowidth" />
    <inkscape:path-effect
       effect="powerstroke"
       id="path-effect2406-17-9"
       is_visible="true"
       lpeversion="1"
       offset_points="0.017164285,-1.5234082 | 0.68139375,-2.290237 | 1,-1.4915419"
       not_jump="false"
       sort_points="true"
       interpolator_type="CentripetalCatmullRom"
       interpolator_beta="0.2"
       start_linecap_type="zerowidth"
       linejoin_type="round"
       miter_limit="4"
       scale_width="1"
       end_linecap_type="zerowidth" />
    <inkscape:path-effect
       effect="powerstroke"
       id="path-effect2406-0-9"
       is_visible="true"
       lpeversion="1"
       offset_points="0.017164285,-2.1000616 | 0.68139375,-3.157157 | 1,-2.056133"
       not_jump="false"
       sort_points="true"
       interpolator_type="CentripetalCatmullRom"
       interpolator_beta="0.2"
       start_linecap_type="zerowidth"
       linejoin_type="round"
       miter_limit="4"
       scale_width="1"
       end_linecap_type="zerowidth" />
  </defs>
  <g
     inkscape:label="Capa 1"
     inkscape:groupmode="layer"
     id="layer1">
    <path
       inkscape:original-d="M -7.7338202,241.46704"
       inkscape:path-effect="#path-effect992"
       d="M -0.42965665,0.42965665 H 509.57278 V 286.15134 H -0.42965665 Z"
       id="path994"
       style="fill:#7fb536;fill-opacity:1" />
    <path
       style="fill:#46980b;fill-opacity:0.87843138;fill-rule:nonzero;stroke:none;stroke-width:0.0737394px;stroke-linecap:butt;stroke-linejoin:miter;stroke-opacity:1"
       d="m 461.68438,146.88201 c 0.0523,-0.2561 -0.15638,-1.11542 0.31384,-1.53658 1.4267,-1.27785 10.44684,-1.29009 14.37734,-1.31937 2.72928,-0.0203 6.18077,-0.25709 6.94103,0.53281 0.3519,0.36562 0.0477,1.24203 0.0572,1.49044 0.01,0.24841 0.38006,1.09891 0.0572,1.49044 -0.69745,0.84586 -4.15694,0.87443 -6.87975,1.06341 -3.92117,0.27216 -12.91569,0.95155 -14.43617,-0.21316 -0.50113,-0.38386 -0.35894,-1.25666 -0.43073,-1.50799 z"
       id="path2324-3-1"
       inkscape:path-effect="#path-effect2406-17-9"
       inkscape:original-d="m 461.68438,146.88201 21.68943,-0.8327"
       sodipodi:nodetypes="cc" />
    <path
       style="fill:#46980b;fill-opacity:0.87843138;fill-rule:nonzero;stroke:none;stroke-width:0.103604px;stroke-linecap:butt;stroke-linejoin:miter;stroke-opacity:1"
       d="m 409.12745,119.20683 c 0.0158,-0.37547 -0.48487,-1.48693 0.0947,-2.25282 2.02293,-2.67299 18.85322,-6.67731 26.09517,-8.56518 5.02277,-1.30937 11.39131,-3.49813 12.96653,-2.53234 0.62737,0.38464 0.47911,1.67933 0.57493,2.0152 0.0958,0.33587 0.9049,1.35743 0.57493,2.0152 -0.82851,1.65156 -7.39326,3.15259 -12.35081,4.69056 -7.14792,2.21748 -23.55753,7.69631 -26.68633,6.49308 -0.89649,-0.34476 -1.05764,-1.55308 -1.26917,-1.8637 z"
       id="path2324-804-3"
       inkscape:path-effect="#path-effect2406-6-5"
       inkscape:original-d="m 409.12745,119.20683 39.73138,-11.33514"
       sodipodi:nodetypes="cc"
       inkscape:transform-center-x="2.9789009"
       inkscape:transform-center-y="-6.9500515" />
    <path
       style="fill:#46980b;fill-opacity:0.87843138;fill-rule:nonzero;stroke:none;stroke-width:0.0914885px;stroke-linecap:butt;stroke-linejoin:miter;stroke-opacity:1"
       d="m 31.596389,97.148718 c 0.262052,-0.25162 0.714075,-1.21327 1.572312,-1.509718 2.427229,-0.838402 11.434505,1.735214 19.330362,4.26041 8.458047,2.58558 16.315662,5.07163 21.269636,6.61056 8.190173,2.54425 17.784035,4.78162 19.068427,6.60361 0.450241,0.63869 -0.432482,1.48023 -0.518978,1.77628 -0.0865,0.29605 0.204301,1.48046 -0.518978,1.77628 -2.063288,0.8439 -11.352597,-2.43585 -19.624236,-4.70127 -5.003251,-1.37027 -12.963307,-3.50569 -21.482937,-5.8805 -8.013363,-2.12302 -16.989385,-4.8036 -18.583429,-6.816905 -0.563633,-0.711878 -0.426816,-1.765623 -0.512179,-2.118747 z"
       id="path2324-54-7"
       inkscape:path-effect="#path-effect2406-761-2"
       inkscape:original-d="m 31.596389,97.148718 19.999139,5.843172 40.72262,11.89797"
       sodipodi:nodetypes="ccc"
       inkscape:transform-center-x="-0.66508828"
       inkscape:transform-center-y="1.1004906" />
    <path
       style="fill:#46980b;fill-opacity:0.87843138;fill-rule:nonzero;stroke:none;stroke-width:0.0734445px;stroke-linecap:butt;stroke-linejoin:miter;stroke-opacity:1"
       d="m 391.82507,34.482111 c -0.0528,-0.286444 -0.58591,-0.938042 -0.3165,-1.718662 1.18068,-3.420931 18.07229,-16.420177 25.14259,-22.231182 4.89909,-4.0265025 11.00793,-9.97264521 12.80957,-9.7757914 0.54704,0.0597713 0.79872,0.9458483 0.95846,1.135018 0.15974,0.1891697 0.99115,0.5856959 0.95846,1.135018 -0.10767,1.8091657 -6.99295,6.8358405 -11.78309,10.9913574 -6.91308,5.997197 -22.55776,20.473063 -26.12811,21.064115 -0.81472,0.134871 -1.36782,-0.499894 -1.64138,-0.599873 z"
       id="path2324-54-7-2"
       inkscape:path-effect="#path-effect2406-761-2-5"
       inkscape:original-d="M 391.82507,34.482111 430.41919,1.8914936"
       sodipodi:nodetypes="cc"
       inkscape:transform-center-x="-1.0312344"
       inkscape:transform-center-y="-0.076170171" />
    <path
       style="fill:#46980b;fill-opacity:0.87843138;fill-rule:nonzero;stroke:none;stroke-width:0.0734445px;stroke-linecap:butt;stroke-linejoin:miter;stroke-opacity:1"
       d="m 400.22501,90.266253 c 0.0286,-0.289856 -0.30348,-1.063541 0.17142,-1.739133 2.08116,-2.960667 21.91017,-10.778409 30.31234,-14.406152 5.82195,-2.513699 13.33758,-6.537345 15.01441,-5.849658 0.50915,0.208805 0.50582,1.129926 0.60698,1.355911 0.10116,0.225985 0.79039,0.837082 0.60698,1.355911 -0.60407,1.708735 -8.61141,4.63397 -14.36437,7.301791 -8.3026,3.850171 -27.34196,13.431907 -30.93646,13.011955 -0.82022,-0.09583 -1.17608,-0.858854 -1.4113,-1.030625 z"
       id="path2324-54-7-2-7"
       inkscape:path-effect="#path-effect2406-761-2-5-1"
       inkscape:original-d="M 400.22501,90.266253 446.33016,69.627221"
       sodipodi:nodetypes="cc"
       inkscape:transform-center-x="-0.9430692"
       inkscape:transform-center-y="0.18918024" />
    <path
       style="fill:#46980b;fill-opacity:0.87843138;fill-rule:nonzero;stroke:none;stroke-width:0.0910044px;stroke-linecap:butt;stroke-linejoin:miter;stroke-opacity:1"
       d="m 3.5256339,82.807194 c 0.192159,-0.256839 0.3973604,-1.34389 1.152954,-1.541036 1.6323047,-0.425894 7.2903831,2.075974 11.7299141,4.188172 1.202454,0.575904 2.301106,1.120588 3.159136,1.543578 2.644749,1.303805 6.212114,2.821628 6.545727,4.059786 0.157397,0.584158 -0.635044,1.396342 -0.762053,1.67561 -0.127009,0.279268 -0.218332,1.410315 -0.762053,1.67561 -1.15245,0.56231 -4.640991,-1.128833 -7.36186,-2.265264 C 16.344674,91.77496 15.212086,91.304896 13.987751,90.777117 9.4780192,88.819282 3.8737303,86.199142 3.1219245,84.688979 2.7739137,83.989924 3.458349,83.120825 3.5256339,82.807194 Z"
       id="path2324-6-9-4"
       inkscape:path-effect="#path-effect2406-5-9-3"
       inkscape:original-d="m 3.5256339,82.807194 11.6724941,5.30853 10.153184,4.61758"
       sodipodi:nodetypes="ccc" />
    <path
       style="fill:#46980b;fill-opacity:0.87843138;fill-rule:nonzero;stroke:none;stroke-width:0.0926391px;stroke-linecap:butt;stroke-linejoin:miter;stroke-opacity:1"
       d="m 384.76316,42.55483 c 0.18058,0.273746 1.12908,0.855258 1.08348,1.642476 -0.1368,2.361689 -7.98597,10.147494 -11.39329,13.55786 -2.36628,2.368406 -5.17675,5.53708 -6.53393,5.500746 -0.63569,-0.01702 -1.13904,-1.068144 -1.36685,-1.281773 -0.22781,-0.213629 -1.30907,-0.648485 -1.36685,-1.281773 -0.12336,-1.352052 2.85842,-4.360076 5.07008,-6.873481 3.18467,-3.619155 10.4507,-11.951807 12.79874,-12.239894 0.78266,-0.09603 1.42385,0.813199 1.70862,0.975839 z"
       id="path2324-8-2"
       inkscape:path-effect="#path-effect2406-9-6"
       inkscape:original-d="M 384.76316,42.55483 366.55257,61.974139"
       sodipodi:nodetypes="cc" />
    <path
       style="fill:#46980b;fill-opacity:0.87843138;fill-rule:nonzero;stroke:none;stroke-width:0.0926391px;stroke-linecap:butt;stroke-linejoin:miter;stroke-opacity:1"
       d="m 480.994,52.263649 c 0.0665,0.321121 0.73273,1.212188 0.39922,1.926728 -1.00053,2.143648 -11.17261,6.474572 -15.5996,8.383011 -3.07443,1.325359 -6.8575,3.229976 -8.10502,2.694291 -0.58432,-0.250909 -0.66325,-1.413664 -0.7959,-1.696397 -0.13265,-0.282733 -0.97643,-1.086641 -0.7959,-1.696397 0.38542,-1.301813 4.26824,-2.993813 7.25263,-4.511074 4.29735,-2.184768 14.12988,-7.23943 16.41798,-6.638715 0.76269,0.200236 1.02216,1.282128 1.22659,1.538553 z"
       id="path2324-8-2-1"
       inkscape:path-effect="#path-effect2406-9-6-9"
       inkscape:original-d="M 480.994,52.263649 456.8927,63.571282"
       sodipodi:nodetypes="cc" />
    <path
       style="fill:#46980b;fill-opacity:0.87843138;fill-rule:nonzero;stroke:none;stroke-width:0.0828107px;stroke-linecap:butt;stroke-linejoin:miter;stroke-opacity:1"
       d="m 81.138811,77.548033 c 0.234119,-0.175462 0.686395,-1.071407 1.404715,-1.052773 1.588733,0.04121 6.138934,3.827594 9.674858,6.927638 0.955995,0.842744 1.825289,1.6288 2.505388,2.239145 2.096825,1.881765 5.007435,4.196198 4.996797,5.397503 -0.0049,0.553238 -0.901027,1.066095 -1.081232,1.279314 -0.180205,0.213219 -0.536547,1.182284 -1.081232,1.279314 -1.182732,0.210693 -3.949864,-2.273504 -6.154759,-4.027401 -0.71515,-0.568871 -1.635085,-1.295009 -2.625362,-2.097186 -3.645972,-2.969838 -8.137713,-6.825387 -8.44312,-8.385033 -0.138086,-0.70517 0.669956,-1.300434 0.803947,-1.560521 z"
       id="path2324-6-9"
       inkscape:path-effect="#path-effect2406-5-9"
       inkscape:original-d="m 81.138811,77.548033 9.359373,7.91021 8.141153,6.880617"
       sodipodi:nodetypes="ccc" />
    <path
       style="fill:#46980b;fill-opacity:0.87843138;fill-rule:nonzero;stroke:none;stroke-width:0.0786306px;stroke-linecap:butt;stroke-linejoin:miter;stroke-opacity:1"
       d="m 31.621153,49.005489 c 0.264829,-0.156123 0.727139,-0.931464 1.588977,-0.936738 3.690547,-0.02258 21.525036,11.929794 29.345233,16.819183 5.419027,3.388116 13.032795,7.302303 13.431372,9.131466 0.124728,0.572404 -0.686677,1.133642 -0.824012,1.36037 -0.137335,0.226728 -0.258936,1.205798 -0.824012,1.36037 C 72.532965,77.234086 65.537528,72.299091 60.02485,69.065584 52.069506,64.399311 33.216195,54.128917 31.526896,50.847618 c -0.394495,-0.766267 0.07855,-1.535107 0.09426,-1.842129 z"
       id="path2324-54"
       inkscape:path-effect="#path-effect2406-761"
       inkscape:original-d="M 31.621153,49.005489 75.162723,75.37977"
       sodipodi:nodetypes="cc" />
    <path
       style="fill:#46980b;fill-opacity:0.87843138;fill-rule:nonzero;stroke:none;stroke-width:0.0720379px;stroke-linecap:butt;stroke-linejoin:miter;stroke-opacity:1"
       d="m 61.952996,243.91921 c 0.02223,-0.28124 -0.316433,-1.03555 0.133356,-1.68742 1.931535,-2.7993 20.391622,-10.00015 28.219208,-13.34331 5.424104,-2.31663 12.40723,-6.01954 13.99798,-5.35866 0.49599,0.20605 0.49257,1.10987 0.59108,1.33185 0.0985,0.22198 0.77104,0.82581 0.59108,1.33185 -0.57717,1.623 -8.008034,4.31704 -13.36496,6.78504 -7.730639,3.5616 -25.455292,12.41958 -28.826976,11.97385 -0.785151,-0.1038 -1.117307,-0.861 -1.340768,-1.0332 z"
       id="path2324-55"
       inkscape:path-effect="#path-effect2406-8"
       inkscape:original-d="M 61.952996,243.91921 104.89462,224.86167"
       sodipodi:nodetypes="cc" />
    <path
       style="fill:#46980b;fill-opacity:0.87843138;fill-rule:nonzero;stroke:none;stroke-width:0.0578462px;stroke-linecap:butt;stroke-linejoin:miter;stroke-opacity:1"
       d="m 111.15912,248.30359 c 0.0369,0.22039 0.4465,0.74468 0.22156,1.32233 -0.94232,2.41994 -13.342574,10.73003 -18.558411,14.46621 -3.614559,2.58917 -8.134143,6.43709 -9.44573,6.20304 -0.422041,-0.0753 -0.579591,-0.78409 -0.695509,-0.94091 -0.115918,-0.15682 -0.747305,-0.51534 -0.695509,-0.94091 0.16097,-1.32255 5.165341,-4.51463 8.700865,-7.21071 5.101787,-3.89048 16.683664,-13.3077 19.273564,-13.49874 0.61822,-0.0456 0.99931,0.49974 1.19917,0.59969 z"
       id="path2324-7"
       inkscape:path-effect="#path-effect2406-72"
       inkscape:original-d="M 111.15912,248.30359 82.68103,269.35426"
       sodipodi:nodetypes="cc" />
    <path
       style="fill:#46980b;fill-opacity:0.87843138;fill-rule:nonzero;stroke:none;stroke-width:0.104856px;stroke-linecap:butt;stroke-linejoin:miter;stroke-opacity:1"
       d="m 49.141241,204.2753 c -0.0067,-0.37732 -0.575007,-1.47988 -0.04021,-2.26391 1.795544,-2.63232 17.25829,-6.91484 23.92528,-8.8908 4.625212,-1.37083 10.443841,-3.56717 11.986919,-2.68646 0.641176,0.36595 0.544322,1.68155 0.653186,2.01786 0.108864,0.33631 0.95829,1.34559 0.653186,2.01786 -0.734272,1.61789 -6.736221,3.24791 -11.287377,4.84751 -6.560244,2.30573 -21.599418,7.89677 -24.596911,6.81597 -0.892789,-0.32191 -1.078392,-1.54836 -1.29407,-1.85803 z"
       id="path2324-5"
       inkscape:path-effect="#path-effect2406-60"
       inkscape:original-d="M 49.141241,204.2753 85.666413,192.45199"
       sodipodi:nodetypes="cc" />
    <path
       style="fill:#46980b;fill-opacity:0.87843138;fill-rule:nonzero;stroke:none;stroke-width:0.087046px;stroke-linecap:butt;stroke-linejoin:miter;stroke-opacity:1"
       d="m 26.448777,256.5907 c -0.05539,-0.30339 -0.66187,-1.15367 -0.332346,-1.82033 0.995837,-2.01468 10.79123,-5.94711 15.051109,-7.68472 2.958124,-1.20662 6.605937,-2.95866 7.779041,-2.42789 0.545284,0.24672 0.596249,1.34063 0.715499,1.60876 0.11925,0.26813 0.897472,1.03859 0.715499,1.60876 -0.39149,1.22663 -4.135595,2.76217 -7.012766,4.15081 -4.143299,1.99973 -13.623753,6.64028 -15.786811,6.03053 -0.71576,-0.20177 -0.941021,-1.2216 -1.129225,-1.46592 z"
       id="path2324-24"
       inkscape:path-effect="#path-effect2406-02"
       inkscape:original-d="M 26.448777,256.5907 49.66208,246.26652"
       sodipodi:nodetypes="cc" />
    <path
       style="fill:#46980b;fill-opacity:0.87843138;fill-rule:nonzero;stroke:none;stroke-width:0.0601216px;stroke-linecap:butt;stroke-linejoin:miter;stroke-opacity:1"
       d="m 62.599967,285.50157 c -0.102128,-0.18695 -0.684232,-0.61288 -0.612767,-1.12173 0.216137,-1.53894 5.794729,-6.25181 8.214473,-8.31957 1.680292,-1.43587 3.694952,-3.38045 4.580257,-3.28712 0.411172,0.0433 0.68202,0.74956 0.818424,0.89947 0.136404,0.14991 0.813985,0.48605 0.818424,0.89947 0.0096,0.89016 -2.11606,2.71279 -3.703752,4.25043 -2.286391,2.21432 -7.503547,7.32442 -9.056007,7.39471 -0.513311,0.0232 -0.882543,-0.59638 -1.059052,-0.71566 z"
       id="path2324-24-0"
       inkscape:path-effect="#path-effect2406-02-5"
       inkscape:original-d="M 62.599967,285.50157 75.600354,273.67262"
       sodipodi:nodetypes="cc" />
    <path
       style="fill:#46980b;fill-opacity:0.87843138;fill-rule:nonzero;stroke:none;stroke-width:0.0601216px;stroke-linecap:butt;stroke-linejoin:miter;stroke-opacity:1"
       d="m 111.55557,286.57349 c -0.10213,-0.18695 -0.80791,-0.51486 -0.61277,-1.12173 0.46551,-1.44762 5.09217,-5.43599 8.21448,-8.31957 0.53045,-0.48989 1.13536,-1.05313 1.78783,-1.65992 0.83679,-0.84096 2.05314,-2.03782 2.79243,-1.6272 0.29595,0.16438 0.68202,0.74956 0.81842,0.89947 0.1364,0.14991 0.68264,0.58935 0.81842,0.89947 0.33919,0.77466 -0.96686,1.87292 -1.88287,2.62682 -0.66553,0.59245 -1.28322,1.14164 -1.82088,1.62362 -3.16473,2.83694 -7.57099,7.06755 -9.05601,7.3947 -0.62254,0.13714 -0.88254,-0.59638 -1.05905,-0.71566 z"
       id="path2324-24-0-7"
       inkscape:path-effect="#path-effect2406-02-5-8"
       inkscape:original-d="m 111.55557,286.57349 10.66274,-9.70194 2.33765,-2.12701"
       sodipodi:nodetypes="ccc" />
    <path
       style="fill:#46980b;fill-opacity:0.87843138;fill-rule:nonzero;stroke:none;stroke-width:0.101652px;stroke-linecap:butt;stroke-linejoin:miter;stroke-opacity:1"
       d="m 42.251562,170.08205 c 0.08175,-0.35505 -0.190438,-1.53033 0.490492,-2.13031 2.233395,-1.9679 16.996193,-2.16453 23.399625,-2.34962 4.443169,-0.12843 10.12364,-0.69511 11.312512,0.47861 0.506626,0.50017 0.09438,1.71084 0.113261,2.05301 0.01888,0.34217 0.561793,1.50015 0.113261,2.05301 -1.052547,1.29737 -6.760882,1.35899 -11.191214,1.7201 -6.384933,0.52041 -21.079771,1.94891 -23.516085,0.23863 -0.742796,-0.52144 -0.601543,-1.71952 -0.721852,-2.06343 z"
       id="path2324-65"
       inkscape:path-effect="#path-effect2406-0"
       inkscape:original-d="m 42.251562,170.08205 35.31589,-1.94831"
       sodipodi:nodetypes="cc" />
    <path
       style="fill:#46980b;fill-opacity:0.87843138;fill-rule:nonzero;stroke:none;stroke-width:0.101652px;stroke-linecap:butt;stroke-linejoin:miter;stroke-opacity:1"
       d="m 414.86115,148.72699 c 0.0817,-0.35505 -0.19044,-1.53033 0.49049,-2.13031 2.2334,-1.9679 16.9962,-2.16453 23.39963,-2.34962 4.44317,-0.12843 10.12364,-0.69511 11.31251,0.47861 0.50662,0.50017 0.0944,1.71084 0.11326,2.05301 0.0189,0.34217 0.56179,1.50015 0.11326,2.05301 -1.05255,1.29737 -6.76088,1.35899 -11.19121,1.7201 -6.38494,0.52041 -21.07977,1.94891 -23.51609,0.23863 -0.74279,-0.52144 -0.60154,-1.71952 -0.72185,-2.06343 z"
       id="path2324-65-5"
       inkscape:path-effect="#path-effect2406-0-9"
       inkscape:original-d="m 414.86115,148.72699 35.31589,-1.94831"
       sodipodi:nodetypes="cc" />
    <path
       style="fill:#46980b;fill-opacity:0.87843138;fill-rule:nonzero;stroke:none;stroke-width:0.103604px;stroke-linecap:butt;stroke-linejoin:miter;stroke-opacity:1"
       d="m 42.172648,129.02474 c 0.211528,-0.31062 0.176915,-1.59002 1.26917,-1.8637 3.18943,-0.79914 17.506828,3.8979 26.686338,6.49308 0.668888,0.1891 1.378319,0.38673 2.120456,0.59162 3.753419,0.97548 9.871185,2.22426 10.23035,4.09894 0.118303,0.61749 -0.479106,1.67933 -0.574927,2.0152 -0.09582,0.33587 -0.148616,1.55309 -0.574927,2.0152 -1.29426,1.40297 -7.150004,-0.76423 -10.853113,-1.91606 -0.738528,-0.21753 -1.445439,-0.42398 -2.113417,-0.61628 -9.167012,-2.63898 -23.807525,-6.20346 -26.095178,-8.56518 -0.783432,-0.8088 -0.07896,-1.87735 -0.09475,-2.25282 z"
       id="path2324-804"
       inkscape:path-effect="#path-effect2406-6"
       inkscape:original-d="m 42.172648,129.02474 29.189656,8.32764 10.541731,3.0075"
       sodipodi:nodetypes="ccc"
       inkscape:transform-center-x="2.9789009"
       inkscape:transform-center-y="6.9500469" />
    <path
       style="fill:#46980b;fill-opacity:0.87843138;fill-rule:nonzero;stroke:none;stroke-width:0.0737394px;stroke-linecap:butt;stroke-linejoin:miter;stroke-opacity:1"
       d="m 10.41884,170.83242 c 0.05231,-0.2561 -0.156378,-1.11542 0.313839,-1.53658 1.426703,-1.27785 10.446836,-1.29009 14.377337,-1.31937 2.72928,-0.0203 6.180774,-0.2571 6.941028,0.5328 0.351906,0.36562 0.04769,1.24203 0.05722,1.49044 0.0095,0.24841 0.380059,1.09891 0.05722,1.49044 -0.697454,0.84586 -4.156941,0.87443 -6.879746,1.06342 -3.921177,0.27216 -12.915696,0.95155 -14.436174,-0.21316 -0.501124,-0.38386 -0.35894,-1.25666 -0.430728,-1.50799 z"
       id="path2324-3"
       inkscape:path-effect="#path-effect2406-17"
       inkscape:original-d="m 10.41884,170.83242 21.689426,-0.83271"
       sodipodi:nodetypes="cc" />
    <path
       style="fill:#46980b;fill-opacity:0.87843138;fill-rule:nonzero;stroke:none;stroke-width:0.0681245px;stroke-linecap:butt;stroke-linejoin:miter;stroke-opacity:1"
       d="m 14.130083,35.588696 c 0.195944,-0.139698 0.585754,-0.867727 1.175661,-0.838187 1.30251,0.06523 4.955515,3.258775 7.790802,5.870128 0.766514,0.709813 1.463079,1.371484 2.0081,1.885428 1.680335,1.584521 4.017659,3.54015 3.984516,4.525815 -0.01529,0.454722 -0.762547,0.858561 -0.915056,1.030273 -0.152509,0.171712 -0.465318,0.961414 -0.915056,1.030273 -0.974862,0.14926 -3.192719,-1.94088 -4.96451,-3.422429 -0.574685,-0.480545 -1.313953,-1.094135 -2.109282,-1.771502 -2.927778,-2.507218 -6.530205,-5.757713 -6.748725,-7.043417 -0.09897,-0.582296 0.577958,-1.055318 0.69355,-1.266382 z"
       id="path2324-6"
       inkscape:path-effect="#path-effect2406-5"
       inkscape:original-d="m 14.130083,35.588696 7.510819,6.67087 6.533204,5.802587"
       sodipodi:nodetypes="ccc" />
    <path
       style="fill:#46980b;fill-opacity:0.87843138;fill-rule:nonzero;stroke:none;stroke-width:0.0926391px;stroke-linecap:butt;stroke-linejoin:miter;stroke-opacity:1"
       d="m 96.694604,45.367881 c 0.291939,-0.149391 0.974201,-1.028214 1.751634,-0.896345 2.332332,0.395611 9.208042,9.053145 12.223142,12.81473 2.09391,2.612319 4.93441,5.754099 4.74909,7.09906 -0.0868,0.629967 -1.18689,1.01471 -1.42427,1.217652 -0.23738,0.202942 -0.78847,1.229844 -1.42427,1.217652 -1.35742,-0.02603 -4.0194,-3.320424 -6.27443,-5.794997 -3.24711,-3.56324 -10.730454,-11.701285 -10.75866,-14.066765 -0.0094,-0.788481 0.964803,-1.325822 1.157764,-1.590987 z"
       id="path2324-8"
       inkscape:path-effect="#path-effect2406-9"
       inkscape:original-d="M 96.694604,45.367881 113.9942,65.602978"
       sodipodi:nodetypes="cc" />
    <path
       style="fill:#46980b;fill-opacity:0.87843138;fill-rule:nonzero;stroke:none;stroke-width:0.0916254px;stroke-linecap:butt;stroke-linejoin:miter;stroke-opacity:1"
       d="m 71.750925,17.01054 c 0.290419,-0.144509 0.974753,-1.006071 1.742514,-0.867054 2.305305,0.417416 9.024528,9.070207 11.971706,12.829475 2.046715,2.610682 4.828302,5.75405 4.630516,7.083703 -0.09256,0.622234 -1.184723,0.990811 -1.421668,1.188973 -0.236945,0.198162 -0.792873,1.207924 -1.421668,1.188973 -1.343672,-0.0405 -3.945532,-3.334175 -6.153074,-5.810353 -3.178764,-3.565588 -10.506779,-11.709233 -10.509895,-14.052021 -0.001,-0.780245 0.967974,-1.301413 1.161569,-1.561696 z"
       id="path2324-4"
       inkscape:path-effect="#path-effect2406-4"
       inkscape:original-d="M 71.750925,17.01054 88.673993,37.245637"
       sodipodi:nodetypes="cc" />
    <path
       style="fill:#7fb536;fill-opacity:1;fill-rule:nonzero;stroke:none;stroke-width:0.264583"
       id="rect31"
       width="510.00244"
       height="285.72168"
       x="-0.42965665"
       y="0.42965665"
       inkscape:path-effect="#path-effect990"
       inkscape:linked-fill="path994"
       d="m 101.57083,0.29736516 c -51.000243,0 -102.00048665,0.13229149 -102.00048665,0.13229149 0,0 51.00024365,0.1322915 102.00048665,0.1322915 h 408.00195 l -0.13229,-0.1322915 V 286.15134 l 0.13229,-0.1323 H -0.42965665 l 0.13229149,0.1323 V 57.573993 c 0,-28.572168 -0.13229149,-57.14433635 -0.13229149,-57.14433635 0,0 -0.1322915,28.57216835 -0.1322915,57.14433635 V 286.28363 H 509.70508 V 0.29736516 Z"
       sodipodi:type="rect" />
    <path
       style="fill:#46980b;fill-opacity:0.88;fill-rule:nonzero;stroke:none;stroke-width:0.0879008px;stroke-linecap:butt;stroke-linejoin:miter;stroke-opacity:1"
       d="m 112.31582,1.3874778 c 0.29546,-0.097474 1.0636,-0.82187615 1.77275,-0.58484361 2.12466,0.71016801 7.28877,9.80648381 9.55783,13.76349981 1.57582,2.748081 3.77108,6.099888 3.40082,7.331501 -0.17367,0.577674 -1.26128,0.777473 -1.51354,0.932967 -0.25226,0.155494 -0.91943,1.037372 -1.51354,0.932967 -1.26665,-0.222593 -3.27473,-3.689781 -5.02176,-6.332326 -2.5156,-3.80505 -8.32174,-12.5056071 -8.00156,-14.7228098 0.10687,-0.740035 1.09917,-1.1007962 1.319,-1.3209554 z"
       id="path2324"
       inkscape:path-effect="#path-effect2406"
       inkscape:original-d="M 112.31582,1.3874778 125.53368,22.830602"
       sodipodi:nodetypes="cc" />
    <circle
       id="path9801"
       style="fill:#7fb536;stroke:#000000;stroke-width:0.264583"
       cx="415.478"
       cy="116.0073"
       r="0.057229847" />
    <circle
       id="path9803"
       style="fill:#7fb536;stroke:#000000;stroke-width:0.264583"
       cx="415.478"
       cy="116.0073"
       r="0.057229847" />
    <circle
       id="path9821"
       style="fill:#7fb536;stroke:#000000;stroke-width:0.264583"
       cx="412.04074"
       cy="110.42176"
       r="0.057229847" />
    <circle
       id="path9823"
       style="fill:#7fb536;stroke:#000000;stroke-width:0.264583"
       cx="412.04074"
       cy="110.42176"
       r="0.057229847" />
  </g>
</svg>
